<svg width="17" height="16" viewBox="0 0 17 16" fill="none" xmlns="http://www.w3.org/2000/svg">
<path d="M10.047 12.7134C10.047 13.12 9.78035 13.6534 9.44035 13.86L8.50037 14.4667C7.62703 15.0067 6.4137 14.4 6.4137 13.32V9.75336C6.4137 9.28002 6.14703 8.67336 5.8737 8.34003L3.31368 5.64669C2.97368 5.30669 2.70703 4.7067 2.70703 4.30003V2.75336C2.70703 1.94669 3.31371 1.34003 4.05371 1.34003H12.947C13.687 1.34003 14.2937 1.94669 14.2937 2.68669V4.16669C14.2937 4.70669 13.9537 5.38003 13.6204 5.71336" stroke="#4C4C4C" stroke-width="1.5" stroke-miterlimit="10" stroke-linecap="round" stroke-linejoin="round"/>
<path d="M11.2134 11.0133C12.3916 11.0133 13.3468 10.0582 13.3468 8.87998C13.3468 7.70178 12.3916 6.74664 11.2134 6.74664C10.0352 6.74664 9.08008 7.70178 9.08008 8.87998C9.08008 10.0582 10.0352 11.0133 11.2134 11.0133Z" stroke="#4C4C4C" stroke-width="1.5" stroke-linecap="round" stroke-linejoin="round"/>
<path d="M13.7467 11.4133L13.0801 10.7466" stroke="#4C4C4C" stroke-width="1.5" stroke-linecap="round" stroke-linejoin="round"/>
</svg>
