<svg width="34" height="24" viewBox="0 0 34 24" fill="none" xmlns="http://www.w3.org/2000/svg">
<rect width="34" height="24" rx="4" fill="#DEEDE5"/>
<path d="M7.036 17L4.06 8.36H4.978L7.612 15.998L10.264 8.36H11.182L8.206 17H7.036ZM11.9678 9.29V8.3H12.8498V9.29H11.9678ZM11.9678 17V10.52H12.8498V17H11.9678ZM17.3906 17.18C16.7586 17.18 16.2106 17.04 15.7466 16.76C15.2866 16.48 14.9286 16.086 14.6726 15.578C14.4166 15.07 14.2886 14.474 14.2886 13.79C14.2886 13.082 14.4146 12.47 14.6666 11.954C14.9186 11.438 15.2726 11.04 15.7286 10.76C16.1886 10.48 16.7306 10.34 17.3546 10.34C17.9946 10.34 18.5406 10.488 18.9926 10.784C19.4446 11.076 19.7866 11.496 20.0186 12.044C20.2506 12.592 20.3566 13.246 20.3366 14.006H19.4366V13.694C19.4206 12.854 19.2386 12.22 18.8906 11.792C18.5466 11.364 18.0426 11.15 17.3786 11.15C16.6826 11.15 16.1486 11.376 15.7766 11.828C15.4086 12.28 15.2246 12.924 15.2246 13.76C15.2246 14.576 15.4086 15.21 15.7766 15.662C16.1486 16.11 16.6746 16.334 17.3546 16.334C17.8186 16.334 18.2226 16.228 18.5666 16.016C18.9146 15.8 19.1886 15.49 19.3886 15.086L20.2106 15.404C19.9546 15.968 19.5766 16.406 19.0766 16.718C18.5806 17.026 18.0186 17.18 17.3906 17.18ZM14.9126 14.006V13.268H19.8626V14.006H14.9126ZM22.8138 17L20.8338 10.514L21.7158 10.52L23.2518 15.554L24.7938 10.52H25.5978L27.1398 15.554L28.6878 10.52H29.5638L27.5838 17H26.8158L25.1958 11.84L23.5818 17H22.8138Z" fill="#427A5B"/>
</svg>
